<svg width="243" height="226" viewBox="0 0 243 226" fill="none" xmlns="http://www.w3.org/2000/svg"><path d="M120.717 224.91C82.7275 224.91 44.7475 224.91 6.7575 224.91C0.1775 224.91 0.0075 224.77 0.0075 218.22C-0.0025 147.74 -0.0025 77.27 0.0075 6.8C0.0075 0.25 0.1775 0.1 6.7575 0.1C83.0675 0.1 159.367 0.14 235.677 0C240.747 0 242.278 1.56 242.268 6.55C242.148 77.19 242.148 147.83 242.268 218.47C242.268 223.46 240.747 225.04 235.677 225.02C197.357 224.83 159.037 224.92 120.717 224.92V224.91ZM9.7575 166.81C11.8675 165.76 12.6675 163.67 13.8475 161.96C37.6075 127.55 61.3375 93.11 85.0775 58.69C88.3675 53.93 88.7275 53.97 91.4775 59.01C102.808 79.78 114.237 100.49 125.397 121.34C127.607 125.47 129.188 126.05 133.018 123.01C152.448 107.56 172.128 92.42 191.598 77.03C194.498 74.73 196.117 74.82 198.417 77.78C208.237 90.4 218.267 102.86 228.247 115.36C229.497 116.93 230.517 118.81 232.897 120.04C232.897 117.93 232.897 116.44 232.897 114.95C232.917 81.96 232.947 48.97 232.967 15.97C232.967 11.19 230.597 8.79333 225.857 8.78C156.037 8.78 86.2275 8.78 16.4075 8.78C11.6275 8.78 9.23083 11.1533 9.2175 15.9C9.2175 64.55 9.2175 113.21 9.2375 161.86C9.2375 163.46 8.7875 165.15 9.7575 166.8V166.81ZM88.0375 216.22C112.517 216.22 136.987 216.23 161.467 216.22C167.007 216.22 167.157 215.92 164.527 211.11C139.787 165.83 115.037 120.54 90.3075 75.25C87.7475 70.57 87.7575 70.54 84.7775 74.86C64.2575 104.59 44.4475 134.85 22.9275 163.85C12.3875 178.05 7.0775 192.36 9.0175 209.84C9.5575 214.72 10.5275 216.39 15.6075 216.34C39.7475 216.1 63.8975 216.23 88.0375 216.23V216.22ZM232.897 175.36H232.967C232.967 163.71 232.867 152.05 233.027 140.4C233.077 136.85 232.047 134.03 229.827 131.29C218.827 117.7 207.897 104.06 197.087 90.33C194.757 87.38 193.047 86.87 189.857 89.41C172.297 103.44 154.628 117.32 136.818 131.03C133.398 133.66 133.267 135.76 135.247 139.34C148.637 163.51 161.887 187.76 175.037 212.06C176.687 215.11 178.617 216.31 182.077 216.28C197.227 216.13 212.377 216.1 227.527 216.28C231.677 216.33 233.047 214.91 232.977 210.81C232.777 198.99 232.908 187.17 232.908 175.35L232.897 175.36Z" fill="#F7F7F7"/><path d="M116.768 50.8798C116.848 33.6298 130.768 19.7698 148.008 19.7598C164.938 19.7598 179.268 34.0698 179.278 51.0098C179.298 68.1298 164.738 82.6098 147.608 82.4898C130.708 82.3798 116.678 67.9998 116.768 50.8698V50.8798ZM170.088 51.1398C170.128 38.4198 160.758 28.8098 148.248 28.7398C135.618 28.6598 125.468 38.5598 125.438 50.9798C125.408 63.2298 135.318 73.2398 147.568 73.3298C160.548 73.4198 170.058 64.0598 170.088 51.1498V51.1398Z" fill="#F7F7F7"/></svg>