<svg width="75" height="14" viewBox="0 0 75 14" fill="none" xmlns="http://www.w3.org/2000/svg">
<path d="M6.18844 1.66464L7.68978 5.21341L11.5334 5.54317C11.8 5.56617 11.9084 5.89835 11.7061 6.07322L8.79064 8.59577L9.6643 12.3484C9.72488 12.6092 9.44194 12.8144 9.21293 12.6758L5.90974 10.6863L2.60655 12.6758C2.37692 12.8137 2.09459 12.6086 2.15518 12.3484L3.02884 8.59577L0.112798 6.07261C-0.0895615 5.89775 0.0182829 5.56556 0.28547 5.54257L4.12909 5.2128L5.63043 1.66464C5.73464 1.41777 6.08423 1.41777 6.18844 1.66464Z" fill="#FF8E27"/>
<path d="M21.7679 1.66464L23.2692 5.21341L27.1129 5.54317C27.3794 5.56617 27.4879 5.89835 27.2855 6.07322L24.3701 8.59577L25.2438 12.3484C25.3044 12.6092 25.0214 12.8144 24.7924 12.6758L21.4892 10.6863L18.186 12.6758C17.9564 12.8137 17.6741 12.6086 17.7346 12.3484L18.6083 8.59577L15.6923 6.07261C15.4899 5.89775 15.5978 5.56556 15.8649 5.54257L19.7086 5.2128L21.2099 1.66464C21.3141 1.41777 21.6637 1.41777 21.7679 1.66464Z" fill="#FF8E27"/>
<path d="M37.3473 1.66464L38.8487 5.21341L42.6923 5.54317C42.9589 5.56617 43.0673 5.89835 42.865 6.07322L39.9495 8.59577L40.8232 12.3484C40.8838 12.6092 40.6008 12.8144 40.3718 12.6758L37.0686 10.6863L33.7655 12.6758C33.5358 12.8137 33.2535 12.6086 33.3141 12.3484L34.1877 8.59577L31.2717 6.07261C31.0693 5.89775 31.1772 5.56556 31.4444 5.54257L35.288 5.2128L36.7893 1.66464C36.8935 1.41777 37.2431 1.41777 37.3473 1.66464Z" fill="#FF8E27"/>
<path d="M52.9268 1.66464L54.4281 5.21341L58.2717 5.54317C58.5383 5.56617 58.6468 5.89835 58.4444 6.07322L55.529 8.59577L56.4026 12.3484C56.4632 12.6092 56.1803 12.8144 55.9513 12.6758L52.6481 10.6863L49.3449 12.6758C49.1153 12.8137 48.8329 12.6086 48.8935 12.3484L49.7672 8.59577L46.8511 6.07261C46.6488 5.89775 46.7566 5.56556 47.0238 5.54257L50.8674 5.2128L52.3688 1.66464C52.473 1.41777 52.8226 1.41777 52.9268 1.66464Z" fill="#FF8E27"/>
<path d="M68.5062 1.66464L70.0076 5.21341L73.8512 5.54317C74.1178 5.56617 74.2262 5.89835 74.0238 6.07322L71.1084 8.59577L71.9821 12.3484C72.0427 12.6092 71.7597 12.8144 71.5307 12.6758L68.2275 10.6863L64.9243 12.6758C64.6947 12.8137 64.4124 12.6086 64.473 12.3484L65.3466 8.59577L62.4306 6.07261C62.2282 5.89775 62.3361 5.56556 62.6032 5.54257L66.4469 5.2128L67.9482 1.66464C68.0524 1.41777 68.402 1.41777 68.5062 1.66464Z" stroke="#FF8E27" stroke-width="1.04415"/>
</svg>
